<svg width="196" height="58" viewBox="0 0 196 58" fill="none" xmlns="http://www.w3.org/2000/svg">
<g clip-path="url(#clip0_1412:10506)">
<path d="M11.8778 57.997C11.3999 57.997 10.9335 57.9911 10.4593 57.9807C9.47693 57.9684 8.49688 57.8857 7.52717 57.7334C6.62297 57.5829 5.74703 57.3029 4.92827 56.9027C4.11701 56.5058 3.37707 55.9853 2.73681 55.3613C2.08728 54.7446 1.54652 54.0293 1.13595 53.2438C0.720858 52.4532 0.43359 51.6058 0.284152 50.731C0.122772 49.7911 0.0354592 48.8407 0.0229656 47.8881C0.0130202 47.5683 0 46.5036 0 46.5036V11.4771C0 11.4771 0.0138673 10.4287 0.0230441 10.1207C0.0350074 9.16956 0.121808 8.22064 0.282693 7.28219C0.432418 6.40507 0.719914 5.5552 1.13523 4.76201C1.54429 3.97707 2.08204 3.26127 2.72765 2.64236C3.37255 2.01757 4.11486 1.49444 4.9275 1.09203C5.74438 0.693073 6.61866 0.41505 7.52104 0.267271C8.49394 0.113471 9.47738 0.0303187 10.4631 0.0185136L11.8786 0H183.826L185.258 0.0192565C186.235 0.0304757 187.209 0.112886 188.173 0.265785C189.085 0.415418 189.968 0.695381 190.794 1.09647C192.422 1.90744 193.747 3.19046 194.583 4.76571C194.991 5.55342 195.274 6.39636 195.422 7.26591C195.585 8.21206 195.676 9.16843 195.695 10.1274C195.699 10.5568 195.699 11.0181 195.699 11.4771C195.712 12.0457 195.712 12.5869 195.712 13.1325V44.8659C195.712 45.4167 195.712 45.9542 195.699 46.4961C195.699 46.9892 195.699 47.4409 195.693 47.9058C195.675 48.8477 195.585 49.787 195.425 50.7162C195.279 51.5972 194.993 52.4513 194.578 53.2483C194.165 54.0253 193.627 54.7344 192.985 55.3494C192.344 55.9768 191.603 56.5003 190.79 56.8998C189.966 57.3031 189.084 57.5842 188.173 57.7334C187.204 57.8865 186.223 57.9692 185.241 57.9807C184.782 57.9911 184.3 57.997 183.833 57.997L182.133 58L11.8778 57.997Z" fill="black"/>
<path d="M40.2054 29.4539C40.2217 28.1883 40.5578 26.9475 41.1826 25.8467C41.8073 24.746 42.7003 23.8212 43.7785 23.1583C43.0936 22.1801 42.19 21.375 41.1395 20.8071C40.089 20.2392 38.9205 19.924 37.7269 19.8867C35.1807 19.6194 32.7123 21.4103 31.4149 21.4103C30.0923 21.4103 28.0946 19.9132 25.9434 19.9575C24.552 20.0024 23.1959 20.4071 22.0074 21.1319C20.8188 21.8568 19.8383 22.8772 19.1613 24.0936C16.2289 29.1707 18.4162 36.6323 21.2253 40.7362C22.6307 42.7458 24.2732 44.9906 26.4224 44.911C28.5256 44.8237 29.3111 43.5699 31.8497 43.5699C34.3649 43.5699 35.1018 44.911 37.2946 44.8604C39.5514 44.8237 40.9733 42.8418 42.3294 40.8132C43.3392 39.3813 44.1162 37.7988 44.6317 36.1242C43.3205 35.5696 42.2017 34.6414 41.4146 33.4552C40.6274 32.2691 40.2069 30.8775 40.2054 29.4539Z" fill="white"/>
<path d="M36.0635 17.1877C37.294 15.7106 37.9002 13.8119 37.7534 11.895C35.8735 12.0925 34.137 12.9909 32.8899 14.4114C32.2801 15.1054 31.8131 15.9127 31.5156 16.7872C31.218 17.6617 31.0957 18.5863 31.1557 19.5082C32.096 19.5178 33.0262 19.314 33.8763 18.9121C34.7265 18.5102 35.4743 17.9206 36.0635 17.1877Z" fill="white"/>
<path d="M56.7076 20.9643V13.1957H53.8616V11.9171H60.9528V13.1957H58.1127V20.9643H56.7076Z" fill="white"/>
<path d="M67.4872 19.1212C67.3042 19.7452 66.9075 20.2849 66.3667 20.646C65.8259 21.0071 65.1753 21.1666 64.5288 21.0964C64.0789 21.1083 63.6319 21.0222 63.2187 20.844C62.8056 20.6658 62.4361 20.3998 62.136 20.0645C61.8359 19.7292 61.6124 19.3326 61.481 18.9022C61.3495 18.4719 61.3133 18.0181 61.3748 17.5723C61.3149 17.1252 61.3518 16.6704 61.4829 16.2388C61.6141 15.8071 61.8364 15.4087 62.1349 15.0705C62.4334 14.7323 62.8011 14.4621 63.2131 14.2783C63.6251 14.0945 64.0717 14.0014 64.5228 14.0053C66.4226 14.0053 67.5687 15.3032 67.5687 17.4472V17.9173H62.7474V17.9928C62.7263 18.2434 62.7578 18.4956 62.8399 18.7332C62.922 18.9709 63.0528 19.1888 63.224 19.373C63.3952 19.5571 63.603 19.7035 63.834 19.8026C64.0651 19.9018 64.3143 19.9516 64.5658 19.9488C64.8881 19.9875 65.2146 19.9294 65.5039 19.7821C65.7931 19.6347 66.032 19.4046 66.1901 19.1211L67.4872 19.1212ZM62.7474 16.9208H66.1961C66.213 16.6917 66.1819 16.4615 66.1046 16.2451C66.0274 16.0287 65.9057 15.8309 65.7474 15.6643C65.5891 15.4977 65.3978 15.3661 65.1856 15.2779C64.9734 15.1897 64.7452 15.1468 64.5154 15.1521C64.2824 15.1492 64.0511 15.1929 63.8352 15.2808C63.6194 15.3686 63.4233 15.4988 63.2585 15.6637C63.0937 15.8285 62.9636 16.0246 62.8758 16.2406C62.7881 16.4565 62.7444 16.6878 62.7474 16.9208H62.7474ZM63.7129 12.9954L65.2869 10.8387H66.8668L65.1048 12.9954H63.7129Z" fill="white"/>
<path d="M69.4403 11.4717H70.7878V20.9646H69.4403V11.4717Z" fill="white"/>
<path d="M78.7733 19.1212C78.5902 19.7452 78.1935 20.2849 77.6527 20.646C77.1119 21.0071 76.4613 21.1666 75.8148 21.0964C75.365 21.1083 74.9179 21.0222 74.5048 20.844C74.0916 20.6658 73.7221 20.3998 73.422 20.0645C73.122 19.7292 72.8984 19.3326 72.767 18.9022C72.6355 18.4719 72.5993 18.0181 72.6608 17.5723C72.6009 17.1252 72.6378 16.6704 72.7689 16.2388C72.9001 15.8071 73.1224 15.4087 73.4209 15.0705C73.7194 14.7323 74.0871 14.4621 74.4991 14.2783C74.9111 14.0945 75.3577 14.0014 75.8088 14.0053C77.7086 14.0053 78.8547 15.3032 78.8547 17.4472V17.9173H74.0334V17.9928C74.0123 18.2434 74.0438 18.4956 74.1259 18.7332C74.208 18.9709 74.3388 19.1888 74.51 19.373C74.6812 19.5571 74.889 19.7035 75.12 19.8026C75.3511 19.9018 75.6003 19.9516 75.8518 19.9488C76.1741 19.9875 76.5006 19.9294 76.7899 19.7821C77.0791 19.6347 77.318 19.4046 77.4761 19.1211L78.7733 19.1212ZM74.0334 16.9208H77.482C77.499 16.6917 77.4679 16.4615 77.3906 16.2451C77.3134 16.0287 77.1917 15.8309 77.0334 15.6643C76.8751 15.4977 76.6837 15.3661 76.4716 15.2779C76.2594 15.1897 76.0311 15.1468 75.8014 15.1521C75.5684 15.1492 75.3371 15.1929 75.1212 15.2808C74.9053 15.3686 74.7092 15.4988 74.5445 15.6637C74.3797 15.8285 74.2496 16.0246 74.1618 16.2406C74.0741 16.4565 74.0304 16.6878 74.0334 16.9208ZM74.9989 12.9954L76.5729 10.8387H78.1528L76.3908 12.9954H74.9989Z" fill="white"/>
<path d="M85.1346 16.368C85.0487 16.0139 84.8388 15.7023 84.543 15.4897C84.2472 15.277 83.885 15.1773 83.5221 15.2085C82.3938 15.2085 81.7037 16.0733 81.7037 17.5281C81.7037 19.0081 82.3997 19.8921 83.5221 19.8921C83.8815 19.9337 84.2437 19.8426 84.5407 19.6359C84.8376 19.4292 85.0488 19.1212 85.1346 18.7697H86.445C86.3584 19.4611 86.005 20.0912 85.4604 20.5258C84.9157 20.9603 84.2228 21.1649 83.5295 21.0959C83.073 21.1103 82.6188 21.0248 82.1988 20.8454C81.7787 20.666 81.403 20.3969 81.0978 20.0571C80.7926 19.7173 80.5653 19.3149 80.4318 18.8781C80.2984 18.4412 80.262 17.9805 80.3252 17.5282C80.2652 17.0791 80.3039 16.6224 80.4386 16.1899C80.5734 15.7574 80.8009 15.3595 81.1053 15.024C81.4097 14.6885 81.7837 14.4234 82.2011 14.2474C82.6185 14.0714 83.0694 13.9886 83.5221 14.0048C84.2211 13.9404 84.9177 14.1513 85.4636 14.5927C86.0095 15.034 86.3616 15.671 86.445 16.368L85.1346 16.368Z" fill="white"/>
<path d="M88.2337 11.4717H89.5693V15.2342H89.6759C89.8551 14.841 90.1511 14.5126 90.5236 14.2937C90.8961 14.0749 91.3271 13.9762 91.7578 14.0111C92.0883 13.9931 92.4186 14.0483 92.7253 14.1727C93.032 14.2971 93.3075 14.4877 93.5321 14.7308C93.7567 14.9739 93.9249 15.2636 94.0246 15.5792C94.1244 15.8948 94.1532 16.2285 94.1092 16.5565V20.9646H92.7602V16.8889C92.7602 15.7983 92.2523 15.246 91.3002 15.246C91.0686 15.227 90.8357 15.2589 90.6177 15.3393C90.3997 15.4198 90.2019 15.5469 90.0381 15.7117C89.8744 15.8766 89.7486 16.0753 89.6697 16.2938C89.5908 16.5124 89.5605 16.7455 89.5811 16.977V20.9646H88.2336L88.2337 11.4717Z" fill="white"/>
<path d="M95.8031 19.0335C95.8031 17.8045 96.7182 17.096 98.3425 16.9953L100.192 16.8887V16.2994C100.192 15.5783 99.7152 15.1711 98.7941 15.1711C98.0419 15.1711 97.5207 15.4472 97.3712 15.9299H96.0667C96.2044 14.7572 97.3075 14.005 98.8563 14.005C100.568 14.005 101.533 14.8571 101.533 16.2994V20.9644H100.236V20.0049H100.13C99.9134 20.3491 99.6095 20.6297 99.2492 20.818C98.8889 21.0063 98.4851 21.0957 98.079 21.0769C97.7924 21.1067 97.5027 21.0761 97.2286 20.9871C96.9545 20.8981 96.7021 20.7527 96.4877 20.5602C96.2733 20.3676 96.1016 20.1323 95.9836 19.8694C95.8657 19.6064 95.8042 19.3217 95.8031 19.0335ZM100.192 18.4501V17.8793L98.5247 17.9859C97.5844 18.0489 97.158 18.3687 97.158 18.9706C97.158 19.5851 97.691 19.9427 98.424 19.9427C98.6388 19.9644 98.8557 19.9428 99.062 19.8789C99.2682 19.8151 99.4595 19.7105 99.6244 19.5712C99.7894 19.432 99.9246 19.2609 100.022 19.0683C100.12 18.8758 100.177 18.6655 100.192 18.4501L100.192 18.4501Z" fill="white"/>
<path d="M103.643 14.137H104.94V15.1839H105.041C105.186 14.8205 105.442 14.5124 105.774 14.304C106.105 14.0955 106.494 13.9974 106.884 14.0237C107.086 14.021 107.287 14.0399 107.485 14.08V15.4097C107.238 15.3569 106.986 15.3296 106.733 15.3283C106.511 15.3084 106.287 15.3351 106.076 15.4069C105.864 15.4786 105.67 15.5938 105.506 15.7449C105.342 15.8961 105.211 16.0799 105.123 16.2846C105.034 16.4893 104.989 16.7103 104.99 16.9334V20.9647H103.643L103.643 14.137Z" fill="white"/>
<path d="M108.725 21.6479H110.103C110.217 22.1432 110.787 22.463 111.696 22.463C112.819 22.463 113.484 21.93 113.484 21.0275V19.717H113.383C113.172 20.0839 112.863 20.3851 112.491 20.5875C112.119 20.7899 111.699 20.8855 111.276 20.8639C109.533 20.8639 108.455 19.5164 108.455 17.4722C108.455 15.3904 109.545 14.0237 111.289 14.0237C111.723 14.0086 112.152 14.1129 112.53 14.3252C112.908 14.5375 113.221 14.8496 113.433 15.2275H113.54V14.1369H114.831V21.0208C114.831 22.5822 113.608 23.5728 111.677 23.5728C109.971 23.5728 108.868 22.808 108.725 21.6479ZM113.509 17.4656C113.509 16.1055 112.805 15.2341 111.658 15.2341C110.498 15.2341 109.847 16.1056 109.847 17.4656C109.847 18.8264 110.498 19.6978 111.658 19.6978C112.813 19.6978 113.509 18.833 113.509 17.4655V17.4656Z" fill="white"/>
<path d="M122.752 19.121C122.568 19.745 122.172 20.2848 121.631 20.6459C121.09 21.007 120.44 21.1664 119.793 21.0963C119.343 21.1082 118.896 21.022 118.483 20.8438C118.07 20.6656 117.7 20.3996 117.4 20.0643C117.1 19.729 116.877 19.3324 116.745 18.9021C116.614 18.4717 116.578 18.0179 116.639 17.5722C116.579 17.1251 116.616 16.6703 116.747 16.2386C116.878 15.807 117.101 15.4086 117.399 15.0703C117.698 14.7321 118.065 14.462 118.477 14.2782C118.889 14.0944 119.336 14.0013 119.787 14.0051C121.687 14.0051 122.833 15.303 122.833 17.447V17.9172H118.012V17.9927C117.991 18.2432 118.022 18.4954 118.104 18.7331C118.186 18.9708 118.317 19.1887 118.488 19.3728C118.659 19.557 118.867 19.7033 119.098 19.8025C119.329 19.9017 119.579 19.9514 119.83 19.9486C120.152 19.9873 120.479 19.9293 120.768 19.7819C121.057 19.6345 121.296 19.4044 121.454 19.1209L122.752 19.121ZM118.012 16.9207H121.46C121.477 16.6915 121.446 16.4614 121.369 16.245C121.292 16.0286 121.17 15.8307 121.012 15.6641C120.853 15.4976 120.662 15.366 120.45 15.2777C120.238 15.1895 120.009 15.1467 119.78 15.152C119.547 15.149 119.315 15.1928 119.099 15.2806C118.884 15.3685 118.688 15.4987 118.523 15.6635C118.358 15.8284 118.228 16.0245 118.14 16.2404C118.052 16.4563 118.009 16.6876 118.012 16.9207H118.012Z" fill="white"/>
<path d="M124.642 14.137H125.94V15.1839H126.04C126.185 14.8205 126.442 14.5124 126.773 14.304C127.105 14.0955 127.493 13.9974 127.884 14.0237C128.086 14.021 128.287 14.0399 128.485 14.08V15.4097C128.238 15.3569 127.986 15.3296 127.733 15.3283C127.51 15.3083 127.286 15.3351 127.075 15.4068C126.864 15.4786 126.67 15.5937 126.506 15.7449C126.342 15.896 126.211 16.0799 126.122 16.2846C126.033 16.4892 125.988 16.7103 125.99 16.9334V20.9647H124.642V14.137Z" fill="white"/>
<path d="M133.34 17.5478C133.34 15.3904 134.449 14.0237 136.174 14.0237C136.601 14.004 137.024 14.1062 137.395 14.3184C137.766 14.5305 138.069 14.8437 138.268 15.2215H138.369V11.4717H139.716V20.9646H138.425V19.8859H138.318C138.104 20.2611 137.79 20.5705 137.412 20.7805C137.034 20.9905 136.606 21.093 136.174 21.0771C134.437 21.0771 133.34 19.7104 133.34 17.5478ZM134.732 17.5478C134.732 18.996 135.415 19.8674 136.556 19.8674C137.692 19.8674 138.394 18.9834 138.394 17.5538C138.394 16.1308 137.685 15.2342 136.556 15.2342C135.422 15.2342 134.732 16.1116 134.732 17.5478H134.732Z" fill="white"/>
<path d="M141.537 19.0335C141.537 17.8045 142.453 17.096 144.077 16.9953L145.926 16.8887V16.2994C145.926 15.5783 145.45 15.1711 144.529 15.1711C143.776 15.1711 143.255 15.4472 143.106 15.9299H141.801C141.939 14.7572 143.042 14.005 144.591 14.005C146.302 14.005 147.268 14.8571 147.268 16.2994V20.9644H145.971V20.0049H145.864C145.648 20.3491 145.344 20.6297 144.984 20.818C144.623 21.0063 144.219 21.0957 143.813 21.0769C143.527 21.1067 143.237 21.0761 142.963 20.9871C142.689 20.8981 142.436 20.7527 142.222 20.5602C142.008 20.3676 141.836 20.1323 141.718 19.8694C141.6 19.6064 141.539 19.3217 141.537 19.0335ZM145.926 18.4501V17.8793L144.259 17.9859C143.319 18.0488 142.892 18.3687 142.892 18.9706C142.892 19.5851 143.425 19.9427 144.158 19.9427C144.373 19.9644 144.59 19.9427 144.796 19.8789C145.003 19.8151 145.194 19.7104 145.359 19.5712C145.524 19.4319 145.659 19.2609 145.756 19.0683C145.854 18.8757 145.912 18.6655 145.926 18.4501V18.4501Z" fill="white"/>
<path d="M149.378 14.1369H150.675V15.2216H150.776C150.947 14.832 151.235 14.5054 151.6 14.2874C151.965 14.0693 152.389 13.9707 152.813 14.0051C153.146 13.9802 153.479 14.0302 153.789 14.1517C154.1 14.2731 154.378 14.4628 154.605 14.7067C154.832 14.9506 155.002 15.2424 155.1 15.5606C155.199 15.8787 155.225 16.215 155.177 16.5446V20.9645H153.829V16.8829C153.829 15.7857 153.352 15.2401 152.356 15.2401C152.13 15.2296 151.905 15.268 151.696 15.3526C151.486 15.4373 151.298 15.5662 151.143 15.7305C150.988 15.8949 150.871 16.0907 150.799 16.3047C150.727 16.5187 150.702 16.7458 150.725 16.9703V20.9645H149.378V14.1369Z" fill="white"/>
<path d="M159.756 14.005C161.292 14.005 162.296 14.7195 162.427 15.9233H161.135C161.01 15.4221 160.52 15.1022 159.756 15.1022C159.004 15.1022 158.432 15.4591 158.432 15.9921C158.432 16.4 158.777 16.657 159.518 16.8265L160.652 17.0894C161.951 17.3907 162.559 17.9489 162.559 18.9521C162.559 20.2374 161.361 21.0962 159.731 21.0962C158.107 21.0962 157.048 20.3625 156.928 19.1527H158.277C158.393 19.4407 158.603 19.6812 158.872 19.8357C159.141 19.9903 159.455 20.0498 159.762 20.0049C160.602 20.0049 161.198 19.6288 161.198 19.0831C161.198 18.6759 160.879 18.4124 160.194 18.2495L159.004 17.9733C157.705 17.6661 157.104 17.0834 157.104 16.0676C157.104 14.8572 158.213 14.005 159.756 14.005Z" fill="white"/>
<path d="M56.0146 26.0673H58.8339V44.8969H56.0146V26.0673Z" fill="white"/>
<path d="M62.2307 32.9571L63.7707 26.0673H66.51L64.6443 32.9571H62.2307Z" fill="white"/>
<path d="M77.1638 39.8076H69.9868L68.2632 44.8969H65.2233L72.0213 26.0673H75.1796L81.9776 44.8969H78.8859L77.1638 39.8076ZM70.7301 37.4592H76.4191L73.6146 29.199H73.5361L70.7301 37.4592Z" fill="white"/>
<path d="M96.6576 38.0338C96.6576 42.2998 94.3744 45.0406 90.9287 45.0406C90.0559 45.0862 89.1878 44.8852 88.4239 44.4604C87.6601 44.0356 87.0312 43.4044 86.6095 42.6388H86.5443V49.4383H83.7264V31.1684H86.4539V33.4517H86.5058C86.9469 32.6898 87.5864 32.0618 88.3561 31.6344C89.1258 31.2071 89.9969 30.9964 90.8769 31.0247C94.361 31.0248 96.6576 33.7789 96.6576 38.0338ZM93.7613 38.0338C93.7613 35.2537 92.325 33.4265 90.1336 33.4265C87.9806 33.4265 86.5324 35.2922 86.5324 38.0338C86.5324 40.7998 87.9806 42.6522 90.1336 42.6522C92.325 42.6521 93.7613 40.8383 93.7613 38.0338Z" fill="white"/>
<path d="M111.766 38.0338C111.766 42.2998 109.483 45.0406 106.037 45.0406C105.164 45.0862 104.296 44.8852 103.532 44.4604C102.769 44.0356 102.14 43.4044 101.718 42.6388H101.653V49.4383H98.8357V31.1684H101.562V33.4517H101.614C102.055 32.6898 102.695 32.0618 103.465 31.6344C104.234 31.2071 105.105 30.9964 105.985 31.0247C109.47 31.0248 111.766 33.7789 111.766 38.0338ZM108.87 38.0338C108.87 35.2537 107.434 33.4265 105.242 33.4265C103.089 33.4265 101.641 35.2922 101.641 38.0338C101.641 40.7998 103.089 42.6522 105.242 42.6522C107.434 42.6521 108.87 40.8383 108.87 38.0338Z" fill="white"/>
<path d="M121.752 39.6506C121.961 41.5178 123.775 42.7438 126.254 42.7438C128.629 42.7438 130.337 41.5178 130.337 39.8342C130.337 38.3727 129.307 37.4976 126.867 36.8979L124.426 36.3093C120.969 35.4743 119.364 33.8573 119.364 31.2335C119.364 27.9847 122.195 25.7533 126.215 25.7533C130.194 25.7533 132.921 27.9847 133.013 31.2335H130.169C129.998 29.3544 128.445 28.2202 126.175 28.2202C123.905 28.2202 122.352 29.3678 122.352 31.038C122.352 32.3692 123.344 33.1525 125.771 33.7521L127.845 34.2615C131.708 35.1751 133.314 36.7276 133.314 39.4818C133.314 43.0044 130.508 45.2107 126.045 45.2107C121.869 45.2107 119.05 43.0562 118.868 39.6506L121.752 39.6506Z" fill="white"/>
<path d="M139.396 27.9196V31.1683H142.007V33.3997H139.396V40.9684C139.396 42.1441 139.919 42.692 141.067 42.692C141.377 42.6866 141.686 42.6648 141.994 42.6268V44.8449C141.478 44.9413 140.953 44.985 140.428 44.9752C137.649 44.9752 136.565 43.9313 136.565 41.269V33.3997H134.569V31.1683H136.565V27.9196H139.396Z" fill="white"/>
<path d="M143.517 38.0338C143.517 33.7138 146.061 30.9996 150.028 30.9996C154.008 30.9996 156.54 33.7137 156.54 38.0338C156.54 42.3649 154.021 45.0672 150.028 45.0672C146.036 45.0672 143.517 42.3649 143.517 38.0338ZM153.669 38.0338C153.669 35.0701 152.311 33.3214 150.028 33.3214C147.745 33.3214 146.388 35.0835 146.388 38.0338C146.388 41.0086 147.745 42.744 150.028 42.744C152.311 42.744 153.669 41.0086 153.669 38.0338H153.669Z" fill="white"/>
<path d="M158.863 31.1686H161.551V33.5052H161.616C161.798 32.7754 162.225 32.1305 162.827 31.6788C163.428 31.2272 164.167 30.9963 164.918 31.025C165.243 31.0238 165.567 31.0591 165.884 31.1301V33.7657C165.474 33.6405 165.046 33.583 164.617 33.5955C164.208 33.5789 163.8 33.6511 163.421 33.8072C163.042 33.9632 162.702 34.1994 162.423 34.4996C162.144 34.7997 161.933 35.1566 161.805 35.5459C161.677 35.9351 161.635 36.3475 161.681 36.7546V44.8971H158.863L158.863 31.1686Z" fill="white"/>
<path d="M178.874 40.865C178.495 43.357 176.068 45.0672 172.963 45.0672C168.969 45.0672 166.491 42.3916 166.491 38.099C166.491 33.7923 168.983 30.9996 172.845 30.9996C176.643 30.9996 179.031 33.6087 179.031 37.7717V38.7372H169.335V38.9074C169.29 39.4127 169.354 39.9216 169.521 40.4005C169.688 40.8794 169.955 41.3173 170.304 41.685C170.653 42.0528 171.077 42.342 171.547 42.5336C172.016 42.7251 172.521 42.8145 173.028 42.7958C173.694 42.8582 174.362 42.704 174.933 42.3561C175.505 42.0082 175.948 41.4852 176.198 40.8649L178.874 40.865ZM169.349 36.7678H176.212C176.237 36.3134 176.168 35.8588 176.01 35.4323C175.851 35.0059 175.606 34.6168 175.29 34.2896C174.973 33.9623 174.593 33.704 174.172 33.5308C173.751 33.3575 173.299 33.2731 172.845 33.2829C172.386 33.2802 171.931 33.3684 171.506 33.5424C171.081 33.7164 170.695 33.9729 170.37 34.2969C170.045 34.6208 169.788 35.006 169.612 35.4301C169.437 35.8542 169.347 36.3088 169.349 36.7678Z" fill="white"/>
</g>
<defs>
<clipPath id="clip0_1412:10506">
<rect width="195.712" height="58" fill="white"/>
</clipPath>
</defs>
</svg>
